<mxfile host="65bd71144e">
    <diagram id="jyklUaYxxtYWc2TEsoOv" name="Page-1">
        <mxGraphModel dx="2108" dy="1212" grid="1" gridSize="10" guides="1" tooltips="1" connect="1" arrows="1" fold="1" page="1" pageScale="1" pageWidth="827" pageHeight="1169" math="0" shadow="0">
            <root>
                <mxCell id="0"/>
                <mxCell id="1" parent="0"/>
                <mxCell id="2" value="" style="pointerEvents=1;verticalLabelPosition=bottom;shadow=0;dashed=0;align=center;html=1;verticalAlign=top;shape=mxgraph.electrical.capacitors.capacitor_1;" parent="1" vertex="1">
                    <mxGeometry x="50" y="240" width="100" height="60" as="geometry"/>
                </mxCell>
                <mxCell id="3" value="" style="pointerEvents=1;verticalLabelPosition=bottom;shadow=0;dashed=0;align=center;html=1;verticalAlign=top;shape=mxgraph.electrical.capacitors.capacitor_1;" parent="1" vertex="1">
                    <mxGeometry x="20" y="320" width="100" height="60" as="geometry"/>
                </mxCell>
                <mxCell id="4" value="" style="verticalLabelPosition=bottom;shadow=0;dashed=0;align=center;fillColor=#000000;html=1;verticalAlign=top;strokeWidth=1;shape=mxgraph.electrical.miscellaneous.monocell_battery;rotation=-180;" parent="1" vertex="1">
                    <mxGeometry x="50" y="120" width="100" height="60" as="geometry"/>
                </mxCell>
                <mxCell id="6" value="M" style="verticalLabelPosition=middle;shadow=0;dashed=0;align=center;html=1;verticalAlign=middle;strokeWidth=1;shape=ellipse;aspect=fixed;fontSize=35;" parent="1" vertex="1">
                    <mxGeometry x="80" y="370" width="60" height="60" as="geometry"/>
                </mxCell>
                <mxCell id="52" value="" style="group" vertex="1" connectable="0" parent="1">
                    <mxGeometry x="320" y="360" width="200" height="260" as="geometry"/>
                </mxCell>
                <mxCell id="10" value="" style="rounded=0;whiteSpace=wrap;html=1;" vertex="1" parent="52">
                    <mxGeometry x="40" width="120" height="260" as="geometry"/>
                </mxCell>
                <mxCell id="11" value="" style="curved=1;endArrow=none;html=1;snapToPoint=0;endFill=0;entryX=0.25;entryY=0;entryDx=0;entryDy=0;exitX=0.75;exitY=0;exitDx=0;exitDy=0;" edge="1" parent="52" source="10" target="10">
                    <mxGeometry width="50" height="50" relative="1" as="geometry">
                        <mxPoint x="-10" y="220" as="sourcePoint"/>
                        <mxPoint x="40" y="170" as="targetPoint"/>
                        <Array as="points">
                            <mxPoint x="100" y="20"/>
                        </Array>
                    </mxGeometry>
                </mxCell>
                <mxCell id="12" value="1" style="text;html=1;strokeColor=none;fillColor=none;align=center;verticalAlign=middle;whiteSpace=wrap;rounded=0;" vertex="1" parent="52">
                    <mxGeometry x="20" y="10" width="60" height="30" as="geometry"/>
                </mxCell>
                <mxCell id="13" value="2" style="text;html=1;strokeColor=none;fillColor=none;align=center;verticalAlign=middle;whiteSpace=wrap;rounded=0;" vertex="1" parent="52">
                    <mxGeometry x="20" y="40" width="60" height="30" as="geometry"/>
                </mxCell>
                <mxCell id="14" value="3" style="text;html=1;strokeColor=none;fillColor=none;align=center;verticalAlign=middle;whiteSpace=wrap;rounded=0;" vertex="1" parent="52">
                    <mxGeometry x="20" y="70" width="60" height="30" as="geometry"/>
                </mxCell>
                <mxCell id="15" value="4" style="text;html=1;strokeColor=none;fillColor=none;align=center;verticalAlign=middle;whiteSpace=wrap;rounded=0;" vertex="1" parent="52">
                    <mxGeometry x="20" y="100" width="60" height="30" as="geometry"/>
                </mxCell>
                <mxCell id="16" value="5" style="text;html=1;strokeColor=none;fillColor=none;align=center;verticalAlign=middle;whiteSpace=wrap;rounded=0;" vertex="1" parent="52">
                    <mxGeometry x="20" y="130" width="60" height="30" as="geometry"/>
                </mxCell>
                <mxCell id="17" value="6" style="text;html=1;strokeColor=none;fillColor=none;align=center;verticalAlign=middle;whiteSpace=wrap;rounded=0;" vertex="1" parent="52">
                    <mxGeometry x="20" y="160" width="60" height="30" as="geometry"/>
                </mxCell>
                <mxCell id="18" value="7" style="text;html=1;strokeColor=none;fillColor=none;align=center;verticalAlign=middle;whiteSpace=wrap;rounded=0;" vertex="1" parent="52">
                    <mxGeometry x="20" y="190" width="60" height="30" as="geometry"/>
                </mxCell>
                <mxCell id="19" value="8" style="text;html=1;strokeColor=none;fillColor=none;align=center;verticalAlign=middle;whiteSpace=wrap;rounded=0;" vertex="1" parent="52">
                    <mxGeometry x="20" y="220" width="60" height="30" as="geometry"/>
                </mxCell>
                <mxCell id="28" value="" style="endArrow=none;html=1;exitX=0.333;exitY=0.5;exitDx=0;exitDy=0;exitPerimeter=0;" edge="1" parent="52" source="12">
                    <mxGeometry width="50" height="50" relative="1" as="geometry">
                        <mxPoint y="25" as="sourcePoint"/>
                        <mxPoint y="25" as="targetPoint"/>
                    </mxGeometry>
                </mxCell>
                <mxCell id="29" value="" style="endArrow=none;html=1;exitX=0.333;exitY=0.5;exitDx=0;exitDy=0;exitPerimeter=0;" edge="1" parent="52">
                    <mxGeometry width="50" height="50" relative="1" as="geometry">
                        <mxPoint x="40" y="54.920000000000016" as="sourcePoint"/>
                        <mxPoint x="0.01999999999998181" y="54.920000000000016" as="targetPoint"/>
                    </mxGeometry>
                </mxCell>
                <mxCell id="30" value="" style="endArrow=none;html=1;exitX=0.333;exitY=0.5;exitDx=0;exitDy=0;exitPerimeter=0;" edge="1" parent="52">
                    <mxGeometry width="50" height="50" relative="1" as="geometry">
                        <mxPoint x="40" y="84.92000000000002" as="sourcePoint"/>
                        <mxPoint x="0.01999999999998181" y="84.92000000000002" as="targetPoint"/>
                    </mxGeometry>
                </mxCell>
                <mxCell id="31" value="" style="endArrow=none;html=1;exitX=0.333;exitY=0.5;exitDx=0;exitDy=0;exitPerimeter=0;" edge="1" parent="52">
                    <mxGeometry width="50" height="50" relative="1" as="geometry">
                        <mxPoint x="40" y="114.92000000000002" as="sourcePoint"/>
                        <mxPoint x="0.01999999999998181" y="114.92000000000002" as="targetPoint"/>
                    </mxGeometry>
                </mxCell>
                <mxCell id="32" value="" style="endArrow=none;html=1;exitX=0.333;exitY=0.5;exitDx=0;exitDy=0;exitPerimeter=0;" edge="1" parent="52">
                    <mxGeometry width="50" height="50" relative="1" as="geometry">
                        <mxPoint x="40" y="144.89" as="sourcePoint"/>
                        <mxPoint x="0.01999999999998181" y="144.89" as="targetPoint"/>
                    </mxGeometry>
                </mxCell>
                <mxCell id="33" value="" style="endArrow=none;html=1;exitX=0.333;exitY=0.5;exitDx=0;exitDy=0;exitPerimeter=0;" edge="1" parent="52">
                    <mxGeometry width="50" height="50" relative="1" as="geometry">
                        <mxPoint x="40" y="174.89" as="sourcePoint"/>
                        <mxPoint x="0.01999999999998181" y="174.89" as="targetPoint"/>
                    </mxGeometry>
                </mxCell>
                <mxCell id="34" value="" style="endArrow=none;html=1;exitX=0.333;exitY=0.5;exitDx=0;exitDy=0;exitPerimeter=0;" edge="1" parent="52">
                    <mxGeometry width="50" height="50" relative="1" as="geometry">
                        <mxPoint x="40" y="204.89" as="sourcePoint"/>
                        <mxPoint x="0.01999999999998181" y="204.89" as="targetPoint"/>
                    </mxGeometry>
                </mxCell>
                <mxCell id="35" value="" style="endArrow=none;html=1;exitX=0.333;exitY=0.5;exitDx=0;exitDy=0;exitPerimeter=0;" edge="1" parent="52">
                    <mxGeometry width="50" height="50" relative="1" as="geometry">
                        <mxPoint x="40" y="234.89" as="sourcePoint"/>
                        <mxPoint x="0.01999999999998181" y="234.89" as="targetPoint"/>
                    </mxGeometry>
                </mxCell>
                <mxCell id="36" value="16" style="text;html=1;strokeColor=none;fillColor=none;align=center;verticalAlign=middle;whiteSpace=wrap;rounded=0;" vertex="1" parent="52">
                    <mxGeometry x="120" y="10" width="60" height="30" as="geometry"/>
                </mxCell>
                <mxCell id="37" value="15" style="text;html=1;strokeColor=none;fillColor=none;align=center;verticalAlign=middle;whiteSpace=wrap;rounded=0;" vertex="1" parent="52">
                    <mxGeometry x="120" y="40" width="60" height="30" as="geometry"/>
                </mxCell>
                <mxCell id="38" value="14" style="text;html=1;strokeColor=none;fillColor=none;align=center;verticalAlign=middle;whiteSpace=wrap;rounded=0;" vertex="1" parent="52">
                    <mxGeometry x="120" y="70" width="60" height="30" as="geometry"/>
                </mxCell>
                <mxCell id="39" value="13" style="text;html=1;strokeColor=none;fillColor=none;align=center;verticalAlign=middle;whiteSpace=wrap;rounded=0;" vertex="1" parent="52">
                    <mxGeometry x="120" y="100" width="60" height="30" as="geometry"/>
                </mxCell>
                <mxCell id="40" value="12" style="text;html=1;strokeColor=none;fillColor=none;align=center;verticalAlign=middle;whiteSpace=wrap;rounded=0;" vertex="1" parent="52">
                    <mxGeometry x="120" y="130" width="60" height="30" as="geometry"/>
                </mxCell>
                <mxCell id="41" value="11" style="text;html=1;strokeColor=none;fillColor=none;align=center;verticalAlign=middle;whiteSpace=wrap;rounded=0;" vertex="1" parent="52">
                    <mxGeometry x="120" y="160" width="60" height="30" as="geometry"/>
                </mxCell>
                <mxCell id="42" value="10" style="text;html=1;strokeColor=none;fillColor=none;align=center;verticalAlign=middle;whiteSpace=wrap;rounded=0;" vertex="1" parent="52">
                    <mxGeometry x="120" y="190" width="60" height="30" as="geometry"/>
                </mxCell>
                <mxCell id="43" value="9" style="text;html=1;strokeColor=none;fillColor=none;align=center;verticalAlign=middle;whiteSpace=wrap;rounded=0;" vertex="1" parent="52">
                    <mxGeometry x="120" y="220" width="60" height="30" as="geometry"/>
                </mxCell>
                <mxCell id="44" value="" style="endArrow=none;html=1;exitX=0.333;exitY=0.5;exitDx=0;exitDy=0;exitPerimeter=0;" edge="1" parent="52">
                    <mxGeometry width="50" height="50" relative="1" as="geometry">
                        <mxPoint x="199.98000000000002" y="24.819999999999993" as="sourcePoint"/>
                        <mxPoint x="160.0000000000001" y="24.819999999999993" as="targetPoint"/>
                    </mxGeometry>
                </mxCell>
                <mxCell id="45" value="" style="endArrow=none;html=1;exitX=0.333;exitY=0.5;exitDx=0;exitDy=0;exitPerimeter=0;" edge="1" parent="52">
                    <mxGeometry width="50" height="50" relative="1" as="geometry">
                        <mxPoint x="200" y="54.74000000000001" as="sourcePoint"/>
                        <mxPoint x="160.0200000000001" y="54.74000000000001" as="targetPoint"/>
                    </mxGeometry>
                </mxCell>
                <mxCell id="46" value="" style="endArrow=none;html=1;exitX=0.333;exitY=0.5;exitDx=0;exitDy=0;exitPerimeter=0;" edge="1" parent="52">
                    <mxGeometry width="50" height="50" relative="1" as="geometry">
                        <mxPoint x="200" y="84.73999999999995" as="sourcePoint"/>
                        <mxPoint x="160.0200000000001" y="84.73999999999995" as="targetPoint"/>
                    </mxGeometry>
                </mxCell>
                <mxCell id="47" value="" style="endArrow=none;html=1;exitX=0.333;exitY=0.5;exitDx=0;exitDy=0;exitPerimeter=0;" edge="1" parent="52">
                    <mxGeometry width="50" height="50" relative="1" as="geometry">
                        <mxPoint x="200" y="114.74000000000007" as="sourcePoint"/>
                        <mxPoint x="160.0200000000001" y="114.74000000000007" as="targetPoint"/>
                    </mxGeometry>
                </mxCell>
                <mxCell id="48" value="" style="endArrow=none;html=1;exitX=0.333;exitY=0.5;exitDx=0;exitDy=0;exitPerimeter=0;" edge="1" parent="52">
                    <mxGeometry width="50" height="50" relative="1" as="geometry">
                        <mxPoint x="200" y="144.70999999999998" as="sourcePoint"/>
                        <mxPoint x="160.0200000000001" y="144.70999999999998" as="targetPoint"/>
                    </mxGeometry>
                </mxCell>
                <mxCell id="49" value="" style="endArrow=none;html=1;exitX=0.333;exitY=0.5;exitDx=0;exitDy=0;exitPerimeter=0;" edge="1" parent="52">
                    <mxGeometry width="50" height="50" relative="1" as="geometry">
                        <mxPoint x="200" y="174.70999999999998" as="sourcePoint"/>
                        <mxPoint x="160.0200000000001" y="174.70999999999998" as="targetPoint"/>
                    </mxGeometry>
                </mxCell>
                <mxCell id="50" value="" style="endArrow=none;html=1;exitX=0.333;exitY=0.5;exitDx=0;exitDy=0;exitPerimeter=0;" edge="1" parent="52">
                    <mxGeometry width="50" height="50" relative="1" as="geometry">
                        <mxPoint x="200" y="204.70999999999998" as="sourcePoint"/>
                        <mxPoint x="160.0200000000001" y="204.70999999999998" as="targetPoint"/>
                    </mxGeometry>
                </mxCell>
                <mxCell id="51" value="" style="endArrow=none;html=1;exitX=0.333;exitY=0.5;exitDx=0;exitDy=0;exitPerimeter=0;" edge="1" parent="52">
                    <mxGeometry width="50" height="50" relative="1" as="geometry">
                        <mxPoint x="200" y="234.70999999999998" as="sourcePoint"/>
                        <mxPoint x="160.0200000000001" y="234.70999999999998" as="targetPoint"/>
                    </mxGeometry>
                </mxCell>
                <mxCell id="131" value="" style="group" vertex="1" connectable="0" parent="1">
                    <mxGeometry x="769.9999999999998" y="40" width="430" height="590" as="geometry"/>
                </mxCell>
                <mxCell id="54" value="" style="rounded=0;whiteSpace=wrap;html=1;" vertex="1" parent="131">
                    <mxGeometry x="40.00000000000023" width="350" height="590" as="geometry"/>
                </mxCell>
                <mxCell id="55" value="CLK" style="text;html=1;strokeColor=none;fillColor=none;align=center;verticalAlign=middle;whiteSpace=wrap;rounded=0;" vertex="1" parent="131">
                    <mxGeometry x="30.000000000000227" y="10" width="60" height="30" as="geometry"/>
                </mxCell>
                <mxCell id="56" value="SD0" style="text;html=1;strokeColor=none;fillColor=none;align=center;verticalAlign=middle;whiteSpace=wrap;rounded=0;" vertex="1" parent="131">
                    <mxGeometry x="30.000000000000227" y="40" width="60" height="30" as="geometry"/>
                </mxCell>
                <mxCell id="57" value="SD1" style="text;html=1;strokeColor=none;fillColor=none;align=center;verticalAlign=middle;whiteSpace=wrap;rounded=0;" vertex="1" parent="131">
                    <mxGeometry x="30.000000000000227" y="70" width="60" height="30" as="geometry"/>
                </mxCell>
                <mxCell id="58" value="G15" style="text;html=1;strokeColor=none;fillColor=none;align=center;verticalAlign=middle;whiteSpace=wrap;rounded=0;" vertex="1" parent="131">
                    <mxGeometry x="30.000000000000227" y="100" width="60" height="30" as="geometry"/>
                </mxCell>
                <mxCell id="59" value="G2" style="text;html=1;strokeColor=none;fillColor=none;align=center;verticalAlign=middle;whiteSpace=wrap;rounded=0;" vertex="1" parent="131">
                    <mxGeometry x="30.000000000000227" y="130" width="60" height="30" as="geometry"/>
                </mxCell>
                <mxCell id="60" value="G4" style="text;html=1;strokeColor=none;fillColor=none;align=center;verticalAlign=middle;whiteSpace=wrap;rounded=0;" vertex="1" parent="131">
                    <mxGeometry x="30.000000000000227" y="190" width="60" height="30" as="geometry"/>
                </mxCell>
                <mxCell id="61" value="G16" style="text;html=1;strokeColor=none;fillColor=none;align=center;verticalAlign=middle;whiteSpace=wrap;rounded=0;" vertex="1" parent="131">
                    <mxGeometry x="30.000000000000227" y="220" width="60" height="30" as="geometry"/>
                </mxCell>
                <mxCell id="62" value="G17" style="text;html=1;strokeColor=none;fillColor=none;align=center;verticalAlign=middle;whiteSpace=wrap;rounded=0;" vertex="1" parent="131">
                    <mxGeometry x="30.000000000000227" y="250" width="60" height="30" as="geometry"/>
                </mxCell>
                <mxCell id="63" value="" style="endArrow=none;html=1;" edge="1" parent="131">
                    <mxGeometry width="50" height="50" relative="1" as="geometry">
                        <mxPoint x="40.00000000000023" y="25" as="sourcePoint"/>
                        <mxPoint y="25" as="targetPoint"/>
                    </mxGeometry>
                </mxCell>
                <mxCell id="64" value="" style="endArrow=none;html=1;exitX=0.333;exitY=0.5;exitDx=0;exitDy=0;exitPerimeter=0;" edge="1" parent="131">
                    <mxGeometry width="50" height="50" relative="1" as="geometry">
                        <mxPoint x="40" y="54.92000000000007" as="sourcePoint"/>
                        <mxPoint x="0.020000000000209184" y="54.92000000000007" as="targetPoint"/>
                    </mxGeometry>
                </mxCell>
                <mxCell id="65" value="" style="endArrow=none;html=1;exitX=0.333;exitY=0.5;exitDx=0;exitDy=0;exitPerimeter=0;" edge="1" parent="131">
                    <mxGeometry width="50" height="50" relative="1" as="geometry">
                        <mxPoint x="40" y="84.92000000000007" as="sourcePoint"/>
                        <mxPoint x="0.020000000000209184" y="84.92000000000007" as="targetPoint"/>
                    </mxGeometry>
                </mxCell>
                <mxCell id="66" value="" style="endArrow=none;html=1;exitX=0.333;exitY=0.5;exitDx=0;exitDy=0;exitPerimeter=0;" edge="1" parent="131">
                    <mxGeometry width="50" height="50" relative="1" as="geometry">
                        <mxPoint x="40" y="114.92000000000007" as="sourcePoint"/>
                        <mxPoint x="0.020000000000209184" y="114.92000000000007" as="targetPoint"/>
                    </mxGeometry>
                </mxCell>
                <mxCell id="67" value="" style="endArrow=none;html=1;exitX=0.333;exitY=0.5;exitDx=0;exitDy=0;exitPerimeter=0;" edge="1" parent="131">
                    <mxGeometry width="50" height="50" relative="1" as="geometry">
                        <mxPoint x="40" y="144.88999999999987" as="sourcePoint"/>
                        <mxPoint x="0.020000000000209184" y="144.88999999999987" as="targetPoint"/>
                    </mxGeometry>
                </mxCell>
                <mxCell id="68" value="" style="endArrow=none;html=1;exitX=0.333;exitY=0.5;exitDx=0;exitDy=0;exitPerimeter=0;" edge="1" parent="131">
                    <mxGeometry width="50" height="50" relative="1" as="geometry">
                        <mxPoint x="40" y="204.88999999999987" as="sourcePoint"/>
                        <mxPoint x="0.020000000000209184" y="204.88999999999987" as="targetPoint"/>
                    </mxGeometry>
                </mxCell>
                <mxCell id="69" value="" style="endArrow=none;html=1;exitX=0.333;exitY=0.5;exitDx=0;exitDy=0;exitPerimeter=0;" edge="1" parent="131">
                    <mxGeometry width="50" height="50" relative="1" as="geometry">
                        <mxPoint x="40" y="234.88999999999987" as="sourcePoint"/>
                        <mxPoint x="0.020000000000209184" y="234.88999999999987" as="targetPoint"/>
                    </mxGeometry>
                </mxCell>
                <mxCell id="70" value="" style="endArrow=none;html=1;exitX=0.333;exitY=0.5;exitDx=0;exitDy=0;exitPerimeter=0;" edge="1" parent="131">
                    <mxGeometry width="50" height="50" relative="1" as="geometry">
                        <mxPoint x="40" y="264.8899999999999" as="sourcePoint"/>
                        <mxPoint x="0.020000000000209184" y="264.8899999999999" as="targetPoint"/>
                    </mxGeometry>
                </mxCell>
                <mxCell id="71" value="G5" style="text;html=1;strokeColor=none;fillColor=none;align=center;verticalAlign=middle;whiteSpace=wrap;rounded=0;" vertex="1" parent="131">
                    <mxGeometry x="30.000000000000227" y="280" width="60" height="30" as="geometry"/>
                </mxCell>
                <mxCell id="72" value="G18" style="text;html=1;strokeColor=none;fillColor=none;align=center;verticalAlign=middle;whiteSpace=wrap;rounded=0;" vertex="1" parent="131">
                    <mxGeometry x="30.000000000000227" y="310" width="60" height="30" as="geometry"/>
                </mxCell>
                <mxCell id="73" value="G19" style="text;html=1;strokeColor=none;fillColor=none;align=center;verticalAlign=middle;whiteSpace=wrap;rounded=0;" vertex="1" parent="131">
                    <mxGeometry x="30.000000000000227" y="340" width="60" height="30" as="geometry"/>
                </mxCell>
                <mxCell id="74" value="GND" style="text;html=1;strokeColor=none;fillColor=none;align=center;verticalAlign=middle;whiteSpace=wrap;rounded=0;" vertex="1" parent="131">
                    <mxGeometry x="30.000000000000227" y="370" width="60" height="30" as="geometry"/>
                </mxCell>
                <mxCell id="75" value="G21" style="text;html=1;strokeColor=none;fillColor=none;align=center;verticalAlign=middle;whiteSpace=wrap;rounded=0;" vertex="1" parent="131">
                    <mxGeometry x="30.000000000000227" y="400" width="60" height="30" as="geometry"/>
                </mxCell>
                <mxCell id="76" value="RXD" style="text;html=1;strokeColor=none;fillColor=none;align=center;verticalAlign=middle;whiteSpace=wrap;rounded=0;" vertex="1" parent="131">
                    <mxGeometry x="30.000000000000227" y="430" width="60" height="30" as="geometry"/>
                </mxCell>
                <mxCell id="77" value="TXD" style="text;html=1;strokeColor=none;fillColor=none;align=center;verticalAlign=middle;whiteSpace=wrap;rounded=0;" vertex="1" parent="131">
                    <mxGeometry x="30.000000000000227" y="460" width="60" height="30" as="geometry"/>
                </mxCell>
                <mxCell id="78" value="G22" style="text;html=1;strokeColor=none;fillColor=none;align=center;verticalAlign=middle;whiteSpace=wrap;rounded=0;" vertex="1" parent="131">
                    <mxGeometry x="30.000000000000227" y="490" width="60" height="30" as="geometry"/>
                </mxCell>
                <mxCell id="79" value="" style="endArrow=none;html=1;" edge="1" parent="131">
                    <mxGeometry width="50" height="50" relative="1" as="geometry">
                        <mxPoint x="40.00000000000023" y="295" as="sourcePoint"/>
                        <mxPoint y="295" as="targetPoint"/>
                    </mxGeometry>
                </mxCell>
                <mxCell id="80" value="" style="endArrow=none;html=1;exitX=0.333;exitY=0.5;exitDx=0;exitDy=0;exitPerimeter=0;" edge="1" parent="131">
                    <mxGeometry width="50" height="50" relative="1" as="geometry">
                        <mxPoint x="40" y="324.9200000000001" as="sourcePoint"/>
                        <mxPoint x="0.020000000000209184" y="324.9200000000001" as="targetPoint"/>
                    </mxGeometry>
                </mxCell>
                <mxCell id="81" value="" style="endArrow=none;html=1;exitX=0.333;exitY=0.5;exitDx=0;exitDy=0;exitPerimeter=0;" edge="1" parent="131">
                    <mxGeometry width="50" height="50" relative="1" as="geometry">
                        <mxPoint x="40" y="354.9200000000001" as="sourcePoint"/>
                        <mxPoint x="0.020000000000209184" y="354.9200000000001" as="targetPoint"/>
                    </mxGeometry>
                </mxCell>
                <mxCell id="82" value="" style="endArrow=none;html=1;exitX=0.333;exitY=0.5;exitDx=0;exitDy=0;exitPerimeter=0;" edge="1" parent="131">
                    <mxGeometry width="50" height="50" relative="1" as="geometry">
                        <mxPoint x="40" y="384.9200000000001" as="sourcePoint"/>
                        <mxPoint x="0.020000000000209184" y="384.9200000000001" as="targetPoint"/>
                    </mxGeometry>
                </mxCell>
                <mxCell id="83" value="" style="endArrow=none;html=1;exitX=0.333;exitY=0.5;exitDx=0;exitDy=0;exitPerimeter=0;" edge="1" parent="131">
                    <mxGeometry width="50" height="50" relative="1" as="geometry">
                        <mxPoint x="40" y="414.8899999999999" as="sourcePoint"/>
                        <mxPoint x="0.020000000000209184" y="414.8899999999999" as="targetPoint"/>
                    </mxGeometry>
                </mxCell>
                <mxCell id="84" value="" style="endArrow=none;html=1;exitX=0.333;exitY=0.5;exitDx=0;exitDy=0;exitPerimeter=0;" edge="1" parent="131">
                    <mxGeometry width="50" height="50" relative="1" as="geometry">
                        <mxPoint x="40" y="444.8899999999999" as="sourcePoint"/>
                        <mxPoint x="0.020000000000209184" y="444.8899999999999" as="targetPoint"/>
                    </mxGeometry>
                </mxCell>
                <mxCell id="85" value="" style="endArrow=none;html=1;exitX=0.333;exitY=0.5;exitDx=0;exitDy=0;exitPerimeter=0;" edge="1" parent="131">
                    <mxGeometry width="50" height="50" relative="1" as="geometry">
                        <mxPoint x="40" y="474.8899999999999" as="sourcePoint"/>
                        <mxPoint x="0.020000000000209184" y="474.8899999999999" as="targetPoint"/>
                    </mxGeometry>
                </mxCell>
                <mxCell id="86" value="" style="endArrow=none;html=1;exitX=0.333;exitY=0.5;exitDx=0;exitDy=0;exitPerimeter=0;" edge="1" parent="131">
                    <mxGeometry width="50" height="50" relative="1" as="geometry">
                        <mxPoint x="40" y="504.8899999999999" as="sourcePoint"/>
                        <mxPoint x="0.020000000000209184" y="504.8899999999999" as="targetPoint"/>
                    </mxGeometry>
                </mxCell>
                <mxCell id="87" value="G23" style="text;html=1;strokeColor=none;fillColor=none;align=center;verticalAlign=middle;whiteSpace=wrap;rounded=0;" vertex="1" parent="131">
                    <mxGeometry x="30.000000000000227" y="520" width="60" height="30" as="geometry"/>
                </mxCell>
                <mxCell id="88" value="GND" style="text;html=1;strokeColor=none;fillColor=none;align=center;verticalAlign=middle;whiteSpace=wrap;rounded=0;" vertex="1" parent="131">
                    <mxGeometry x="30.000000000000227" y="550" width="60" height="30" as="geometry"/>
                </mxCell>
                <mxCell id="89" value="G0" style="text;html=1;strokeColor=none;fillColor=none;align=center;verticalAlign=middle;whiteSpace=wrap;rounded=0;" vertex="1" parent="131">
                    <mxGeometry x="30.000000000000227" y="160" width="60" height="30" as="geometry"/>
                </mxCell>
                <mxCell id="90" value="" style="endArrow=none;html=1;exitX=0.333;exitY=0.5;exitDx=0;exitDy=0;exitPerimeter=0;" edge="1" parent="131">
                    <mxGeometry width="50" height="50" relative="1" as="geometry">
                        <mxPoint x="40" y="534.8899999999998" as="sourcePoint"/>
                        <mxPoint x="0.020000000000209184" y="534.8899999999998" as="targetPoint"/>
                    </mxGeometry>
                </mxCell>
                <mxCell id="91" value="" style="endArrow=none;html=1;exitX=0.333;exitY=0.5;exitDx=0;exitDy=0;exitPerimeter=0;" edge="1" parent="131">
                    <mxGeometry width="50" height="50" relative="1" as="geometry">
                        <mxPoint x="40" y="564.8899999999998" as="sourcePoint"/>
                        <mxPoint x="0.020000000000209184" y="564.8899999999998" as="targetPoint"/>
                    </mxGeometry>
                </mxCell>
                <mxCell id="92" value="" style="endArrow=none;html=1;exitX=0.333;exitY=0.5;exitDx=0;exitDy=0;exitPerimeter=0;" edge="1" parent="131">
                    <mxGeometry width="50" height="50" relative="1" as="geometry">
                        <mxPoint x="40" y="174.70999999999975" as="sourcePoint"/>
                        <mxPoint x="0.020000000000209184" y="174.70999999999975" as="targetPoint"/>
                    </mxGeometry>
                </mxCell>
                <mxCell id="93" value="V5" style="text;html=1;strokeColor=none;fillColor=none;align=center;verticalAlign=middle;whiteSpace=wrap;rounded=0;" vertex="1" parent="131">
                    <mxGeometry x="340.0000000000002" y="10" width="60" height="30" as="geometry"/>
                </mxCell>
                <mxCell id="94" value="CMD" style="text;html=1;strokeColor=none;fillColor=none;align=center;verticalAlign=middle;whiteSpace=wrap;rounded=0;" vertex="1" parent="131">
                    <mxGeometry x="340.0000000000002" y="40" width="60" height="30" as="geometry"/>
                </mxCell>
                <mxCell id="95" value="SD3" style="text;html=1;strokeColor=none;fillColor=none;align=center;verticalAlign=middle;whiteSpace=wrap;rounded=0;" vertex="1" parent="131">
                    <mxGeometry x="340.0000000000002" y="70" width="60" height="30" as="geometry"/>
                </mxCell>
                <mxCell id="96" value="SD2" style="text;html=1;strokeColor=none;fillColor=none;align=center;verticalAlign=middle;whiteSpace=wrap;rounded=0;" vertex="1" parent="131">
                    <mxGeometry x="340.0000000000002" y="100" width="60" height="30" as="geometry"/>
                </mxCell>
                <mxCell id="97" value="G13" style="text;html=1;strokeColor=none;fillColor=none;align=center;verticalAlign=middle;whiteSpace=wrap;rounded=0;" vertex="1" parent="131">
                    <mxGeometry x="340.0000000000002" y="130" width="60" height="30" as="geometry"/>
                </mxCell>
                <mxCell id="98" value="GND" style="text;html=1;strokeColor=none;fillColor=none;align=center;verticalAlign=middle;whiteSpace=wrap;rounded=0;" vertex="1" parent="131">
                    <mxGeometry x="340.0000000000002" y="160" width="60" height="30" as="geometry"/>
                </mxCell>
                <mxCell id="99" value="G12" style="text;html=1;strokeColor=none;fillColor=none;align=center;verticalAlign=middle;whiteSpace=wrap;rounded=0;" vertex="1" parent="131">
                    <mxGeometry x="340.0000000000002" y="190" width="60" height="30" as="geometry"/>
                </mxCell>
                <mxCell id="100" value="G14" style="text;html=1;strokeColor=none;fillColor=none;align=center;verticalAlign=middle;whiteSpace=wrap;rounded=0;" vertex="1" parent="131">
                    <mxGeometry x="340.0000000000002" y="220" width="60" height="30" as="geometry"/>
                </mxCell>
                <mxCell id="101" value="" style="endArrow=none;html=1;exitX=0.333;exitY=0.5;exitDx=0;exitDy=0;exitPerimeter=0;" edge="1" parent="131">
                    <mxGeometry width="50" height="50" relative="1" as="geometry">
                        <mxPoint x="429.98000000000025" y="24.769999999999996" as="sourcePoint"/>
                        <mxPoint x="390" y="24.769999999999996" as="targetPoint"/>
                    </mxGeometry>
                </mxCell>
                <mxCell id="102" value="" style="endArrow=none;html=1;exitX=0.333;exitY=0.5;exitDx=0;exitDy=0;exitPerimeter=0;" edge="1" parent="131">
                    <mxGeometry width="50" height="50" relative="1" as="geometry">
                        <mxPoint x="430" y="54.69000000000007" as="sourcePoint"/>
                        <mxPoint x="390.0200000000002" y="54.69000000000007" as="targetPoint"/>
                    </mxGeometry>
                </mxCell>
                <mxCell id="103" value="" style="endArrow=none;html=1;exitX=0.333;exitY=0.5;exitDx=0;exitDy=0;exitPerimeter=0;" edge="1" parent="131">
                    <mxGeometry width="50" height="50" relative="1" as="geometry">
                        <mxPoint x="430" y="84.69000000000007" as="sourcePoint"/>
                        <mxPoint x="390.0200000000002" y="84.69000000000007" as="targetPoint"/>
                    </mxGeometry>
                </mxCell>
                <mxCell id="104" value="" style="endArrow=none;html=1;exitX=0.333;exitY=0.5;exitDx=0;exitDy=0;exitPerimeter=0;" edge="1" parent="131">
                    <mxGeometry width="50" height="50" relative="1" as="geometry">
                        <mxPoint x="430" y="114.69000000000008" as="sourcePoint"/>
                        <mxPoint x="390.0200000000002" y="114.69000000000008" as="targetPoint"/>
                    </mxGeometry>
                </mxCell>
                <mxCell id="105" value="" style="endArrow=none;html=1;exitX=0.333;exitY=0.5;exitDx=0;exitDy=0;exitPerimeter=0;" edge="1" parent="131">
                    <mxGeometry width="50" height="50" relative="1" as="geometry">
                        <mxPoint x="430" y="144.65999999999988" as="sourcePoint"/>
                        <mxPoint x="390.0200000000002" y="144.65999999999988" as="targetPoint"/>
                    </mxGeometry>
                </mxCell>
                <mxCell id="106" value="" style="endArrow=none;html=1;exitX=0.333;exitY=0.5;exitDx=0;exitDy=0;exitPerimeter=0;" edge="1" parent="131">
                    <mxGeometry width="50" height="50" relative="1" as="geometry">
                        <mxPoint x="430" y="174.65999999999988" as="sourcePoint"/>
                        <mxPoint x="390.0200000000002" y="174.65999999999988" as="targetPoint"/>
                    </mxGeometry>
                </mxCell>
                <mxCell id="107" value="" style="endArrow=none;html=1;exitX=0.333;exitY=0.5;exitDx=0;exitDy=0;exitPerimeter=0;" edge="1" parent="131">
                    <mxGeometry width="50" height="50" relative="1" as="geometry">
                        <mxPoint x="430" y="204.65999999999988" as="sourcePoint"/>
                        <mxPoint x="390.0200000000002" y="204.65999999999988" as="targetPoint"/>
                    </mxGeometry>
                </mxCell>
                <mxCell id="108" value="" style="endArrow=none;html=1;exitX=0.333;exitY=0.5;exitDx=0;exitDy=0;exitPerimeter=0;" edge="1" parent="131">
                    <mxGeometry width="50" height="50" relative="1" as="geometry">
                        <mxPoint x="430" y="234.65999999999985" as="sourcePoint"/>
                        <mxPoint x="390.0200000000002" y="234.65999999999985" as="targetPoint"/>
                    </mxGeometry>
                </mxCell>
                <mxCell id="109" value="G27" style="text;html=1;strokeColor=none;fillColor=none;align=center;verticalAlign=middle;whiteSpace=wrap;rounded=0;" vertex="1" parent="131">
                    <mxGeometry x="340.0000000000002" y="250" width="60" height="30" as="geometry"/>
                </mxCell>
                <mxCell id="110" value="G26" style="text;html=1;strokeColor=none;fillColor=none;align=center;verticalAlign=middle;whiteSpace=wrap;rounded=0;" vertex="1" parent="131">
                    <mxGeometry x="340.0000000000002" y="280" width="60" height="30" as="geometry"/>
                </mxCell>
                <mxCell id="111" value="G25" style="text;html=1;strokeColor=none;fillColor=none;align=center;verticalAlign=middle;whiteSpace=wrap;rounded=0;" vertex="1" parent="131">
                    <mxGeometry x="340.0000000000002" y="310" width="60" height="30" as="geometry"/>
                </mxCell>
                <mxCell id="112" value="G33" style="text;html=1;strokeColor=none;fillColor=none;align=center;verticalAlign=middle;whiteSpace=wrap;rounded=0;" vertex="1" parent="131">
                    <mxGeometry x="340.0000000000002" y="340" width="60" height="30" as="geometry"/>
                </mxCell>
                <mxCell id="113" value="G32" style="text;html=1;strokeColor=none;fillColor=none;align=center;verticalAlign=middle;whiteSpace=wrap;rounded=0;" vertex="1" parent="131">
                    <mxGeometry x="340.0000000000002" y="370" width="60" height="30" as="geometry"/>
                </mxCell>
                <mxCell id="114" value="G35" style="text;html=1;strokeColor=none;fillColor=none;align=center;verticalAlign=middle;whiteSpace=wrap;rounded=0;" vertex="1" parent="131">
                    <mxGeometry x="340.0000000000002" y="400" width="60" height="30" as="geometry"/>
                </mxCell>
                <mxCell id="115" value="G34" style="text;html=1;strokeColor=none;fillColor=none;align=center;verticalAlign=middle;whiteSpace=wrap;rounded=0;" vertex="1" parent="131">
                    <mxGeometry x="340.0000000000002" y="430" width="60" height="30" as="geometry"/>
                </mxCell>
                <mxCell id="116" value="SN" style="text;html=1;strokeColor=none;fillColor=none;align=center;verticalAlign=middle;whiteSpace=wrap;rounded=0;" vertex="1" parent="131">
                    <mxGeometry x="340.0000000000002" y="460" width="60" height="30" as="geometry"/>
                </mxCell>
                <mxCell id="117" value="" style="endArrow=none;html=1;exitX=0.333;exitY=0.5;exitDx=0;exitDy=0;exitPerimeter=0;" edge="1" parent="131">
                    <mxGeometry width="50" height="50" relative="1" as="geometry">
                        <mxPoint x="429.98000000000025" y="264.77" as="sourcePoint"/>
                        <mxPoint x="390" y="264.77" as="targetPoint"/>
                    </mxGeometry>
                </mxCell>
                <mxCell id="118" value="" style="endArrow=none;html=1;exitX=0.333;exitY=0.5;exitDx=0;exitDy=0;exitPerimeter=0;" edge="1" parent="131">
                    <mxGeometry width="50" height="50" relative="1" as="geometry">
                        <mxPoint x="430" y="294.69000000000005" as="sourcePoint"/>
                        <mxPoint x="390.0200000000002" y="294.69000000000005" as="targetPoint"/>
                    </mxGeometry>
                </mxCell>
                <mxCell id="119" value="" style="endArrow=none;html=1;exitX=0.333;exitY=0.5;exitDx=0;exitDy=0;exitPerimeter=0;" edge="1" parent="131">
                    <mxGeometry width="50" height="50" relative="1" as="geometry">
                        <mxPoint x="430" y="324.69000000000005" as="sourcePoint"/>
                        <mxPoint x="390.0200000000002" y="324.69000000000005" as="targetPoint"/>
                    </mxGeometry>
                </mxCell>
                <mxCell id="120" value="" style="endArrow=none;html=1;exitX=0.333;exitY=0.5;exitDx=0;exitDy=0;exitPerimeter=0;" edge="1" parent="131">
                    <mxGeometry width="50" height="50" relative="1" as="geometry">
                        <mxPoint x="430" y="354.69000000000005" as="sourcePoint"/>
                        <mxPoint x="390.0200000000002" y="354.69000000000005" as="targetPoint"/>
                    </mxGeometry>
                </mxCell>
                <mxCell id="121" value="" style="endArrow=none;html=1;exitX=0.333;exitY=0.5;exitDx=0;exitDy=0;exitPerimeter=0;" edge="1" parent="131">
                    <mxGeometry width="50" height="50" relative="1" as="geometry">
                        <mxPoint x="430" y="384.65999999999974" as="sourcePoint"/>
                        <mxPoint x="390.0200000000002" y="384.65999999999974" as="targetPoint"/>
                    </mxGeometry>
                </mxCell>
                <mxCell id="122" value="" style="endArrow=none;html=1;exitX=0.333;exitY=0.5;exitDx=0;exitDy=0;exitPerimeter=0;" edge="1" parent="131">
                    <mxGeometry width="50" height="50" relative="1" as="geometry">
                        <mxPoint x="430" y="414.65999999999974" as="sourcePoint"/>
                        <mxPoint x="390.0200000000002" y="414.65999999999974" as="targetPoint"/>
                    </mxGeometry>
                </mxCell>
                <mxCell id="123" value="" style="endArrow=none;html=1;exitX=0.333;exitY=0.5;exitDx=0;exitDy=0;exitPerimeter=0;" edge="1" parent="131">
                    <mxGeometry width="50" height="50" relative="1" as="geometry">
                        <mxPoint x="430" y="444.65999999999974" as="sourcePoint"/>
                        <mxPoint x="390.0200000000002" y="444.65999999999974" as="targetPoint"/>
                    </mxGeometry>
                </mxCell>
                <mxCell id="124" value="" style="endArrow=none;html=1;exitX=0.333;exitY=0.5;exitDx=0;exitDy=0;exitPerimeter=0;" edge="1" parent="131">
                    <mxGeometry width="50" height="50" relative="1" as="geometry">
                        <mxPoint x="430" y="474.65999999999974" as="sourcePoint"/>
                        <mxPoint x="390.0200000000002" y="474.65999999999974" as="targetPoint"/>
                    </mxGeometry>
                </mxCell>
                <mxCell id="125" value="SP" style="text;html=1;strokeColor=none;fillColor=none;align=center;verticalAlign=middle;whiteSpace=wrap;rounded=0;" vertex="1" parent="131">
                    <mxGeometry x="340.0000000000002" y="490" width="60" height="30" as="geometry"/>
                </mxCell>
                <mxCell id="126" value="EN" style="text;html=1;strokeColor=none;fillColor=none;align=center;verticalAlign=middle;whiteSpace=wrap;rounded=0;" vertex="1" parent="131">
                    <mxGeometry x="340.0000000000002" y="520" width="60" height="30" as="geometry"/>
                </mxCell>
                <mxCell id="127" value="3V3" style="text;html=1;strokeColor=none;fillColor=none;align=center;verticalAlign=middle;whiteSpace=wrap;rounded=0;" vertex="1" parent="131">
                    <mxGeometry x="340.0000000000002" y="550" width="60" height="30" as="geometry"/>
                </mxCell>
                <mxCell id="128" value="" style="endArrow=none;html=1;exitX=0.333;exitY=0.5;exitDx=0;exitDy=0;exitPerimeter=0;" edge="1" parent="131">
                    <mxGeometry width="50" height="50" relative="1" as="geometry">
                        <mxPoint x="430" y="504.65999999999985" as="sourcePoint"/>
                        <mxPoint x="390.0200000000002" y="504.65999999999985" as="targetPoint"/>
                    </mxGeometry>
                </mxCell>
                <mxCell id="129" value="" style="endArrow=none;html=1;exitX=0.333;exitY=0.5;exitDx=0;exitDy=0;exitPerimeter=0;" edge="1" parent="131">
                    <mxGeometry width="50" height="50" relative="1" as="geometry">
                        <mxPoint x="430" y="534.6599999999999" as="sourcePoint"/>
                        <mxPoint x="390.0200000000002" y="534.6599999999999" as="targetPoint"/>
                    </mxGeometry>
                </mxCell>
                <mxCell id="130" value="" style="endArrow=none;html=1;exitX=0.333;exitY=0.5;exitDx=0;exitDy=0;exitPerimeter=0;" edge="1" parent="131">
                    <mxGeometry width="50" height="50" relative="1" as="geometry">
                        <mxPoint x="430" y="564.6599999999999" as="sourcePoint"/>
                        <mxPoint x="390.0200000000002" y="564.6599999999999" as="targetPoint"/>
                    </mxGeometry>
                </mxCell>
            </root>
        </mxGraphModel>
    </diagram>
</mxfile>
